<svg width="168" height="49" viewBox="0 0 168 49" fill="none" xmlns="http://www.w3.org/2000/svg"><g id="Group 1"><path id="Vector" d="M19.507 0.00105183C20.1942 0.112437 20.8856 0.211222 21.5687 0.33837C25.2517 1.04556 28.4472 2.65014 30.9524 5.49678C31.0217 5.57454 31.0827 5.65965 31.2014 5.81202L26.3898 10.2632C23.7207 7.23061 20.3823 6.02008 16.4428 6.55074C13.7937 6.90801 11.5702 8.09332 9.85846 10.1949C6.73126 14.0335 6.97715 20.7461 10.3996 24.2947C12.6305 26.6064 15.4088 27.5364 18.5633 27.4387C21.7179 27.341 24.306 25.9749 26.3845 23.5686L31.2687 28.0797C30.5089 28.8037 29.8206 29.5424 29.0493 30.1813C26.5768 32.2251 23.6734 33.2906 20.5284 33.6857C16.7791 34.1575 13.1233 33.7803 9.66406 32.1536C4.33963 29.6506 1.13782 25.4621 0.24043 19.6827C-0.530863 14.7302 0.529399 10.1382 3.77114 6.19241C6.41497 2.97379 9.88998 1.14854 13.9293 0.339421C14.5934 0.205969 15.2649 0.112436 15.9332 0L19.507 0.00105183Z" fill="#2B2B2B"></path><path id="Vector_2" d="M32.6442 48.9687C32.2238 48.872 31.7909 48.7963 31.3737 48.6755C30.3686 48.3953 29.4947 47.7694 28.9059 46.908C28.3171 46.0466 28.0512 45.005 28.1551 43.9668C28.3506 41.7601 29.9825 40.0788 32.1723 39.854C33.8431 39.6795 35.3794 39.959 36.6698 41.303L35.3941 42.4684C34.5062 41.6782 33.5352 41.3125 32.3752 41.5804C30.8609 41.9293 30.0371 43.1472 30.2168 44.8096C30.3587 46.1241 31.5377 47.1623 32.9289 47.198C33.0172 47.198 33.1044 47.198 33.1916 47.198C34.4526 47.177 34.6628 46.9669 34.6628 45.7406V44.2884H36.4996C36.4996 45.418 36.5101 46.5161 36.4859 47.6142C36.4859 47.7445 36.3125 47.9368 36.178 47.9872C35.3668 48.2909 34.5451 48.5662 33.7233 48.8426C33.5411 48.8942 33.3562 48.9363 33.1696 48.9687H32.6442Z" fill="#2B2B2B"></path><path id="Vector_3" d="M61.6517 48.9687C61.3291 48.8972 61.0075 48.8226 60.6849 48.7532C58.6169 48.3067 57.1994 46.6285 57.1458 44.5626C57.0859 42.3086 58.3521 40.5212 60.479 39.9979C62.2223 39.5702 63.8878 39.7457 65.319 40.972C65.3857 41.0283 65.4496 41.0879 65.5102 41.1507C65.5533 41.2035 65.5926 41.2594 65.6279 41.3177L64.3869 42.4652C63.7071 41.8652 62.9599 41.4691 62.0573 41.4964C60.9109 41.5321 59.9557 41.9503 59.4628 43.0463C58.9826 44.1255 59.0299 45.211 59.7939 46.1609C60.5294 47.0793 61.5382 47.3252 62.672 47.1413C62.7403 47.1297 62.8086 47.114 62.8769 47.0972C63.6524 46.9112 63.6671 46.887 63.665 46.0779V44.2915H65.4714V46.6264C65.4714 47.962 65.4325 48.0555 64.1536 48.4895C63.5148 48.706 62.837 48.8047 62.1771 48.9634L61.6517 48.9687Z" fill="#2B2B2B"></path><path id="Vector_4" d="M113.049 48.9687C112.794 48.9193 112.54 48.8636 112.286 48.8215C110.524 48.4937 109.416 47.3241 109.322 45.459C109.231 43.6621 109.302 41.8568 109.302 39.9664C109.886 39.9664 110.457 39.9443 111.023 39.9885C111.122 39.9958 111.271 40.2837 111.273 40.4445C111.293 41.7391 111.28 43.0348 111.285 44.3325C111.285 44.6646 111.303 44.9977 111.337 45.3276C111.471 46.6233 112.184 47.2527 113.451 47.2096C114.515 47.1728 115.244 46.3826 115.266 45.1679C115.293 43.6463 115.274 42.1205 115.276 40.6V40H117.207C117.217 40.1787 117.237 40.3625 117.237 40.5475C117.237 42.0186 117.224 43.4897 117.243 44.9609C117.273 47.1802 116.01 48.7238 113.818 48.8814C113.699 48.9018 113.582 48.9342 113.469 48.9781L113.049 48.9687Z" fill="#2B2B2B"></path><path id="Vector_5" d="M42.1035 48.9687C41.8303 48.9172 41.5571 48.8636 41.285 48.8142C39.6446 48.4884 38.5802 47.5469 38.4341 45.8341C38.2712 43.9122 38.3963 41.9661 38.3963 39.9937H40.2762C40.2898 40.2039 40.3151 40.414 40.3182 40.6347C40.3434 42.2424 40.3182 43.8523 40.4023 45.4569C40.4622 46.5844 41.1662 47.176 42.2443 47.2012C43.3708 47.2275 44.0748 46.6758 44.2251 45.542C44.3176 44.8537 44.3071 44.1486 44.3155 43.4509C44.3291 42.316 44.3155 41.1811 44.3155 40.0021H46.2416C46.2601 40.1212 46.2724 40.2411 46.2784 40.3615C46.2784 41.9377 46.3057 43.5139 46.271 45.0901C46.2427 46.3627 45.8917 47.5385 44.7306 48.2425C44.2388 48.541 43.6356 48.6629 43.0787 48.8478C42.8951 48.8996 42.7088 48.9414 42.5207 48.9729L42.1035 48.9687Z" fill="#2B2B2B"></path><path id="Vector_6" d="M137.427 48.9687C137.155 48.9182 136.883 48.8636 136.612 48.8152C134.944 48.4853 133.86 47.4744 133.731 45.7364C133.589 43.8449 133.698 41.9346 133.698 39.9948H135.612C135.623 40.2375 135.641 40.4592 135.644 40.6809C135.666 42.2719 135.644 43.8649 135.723 45.4516C135.781 46.5707 136.492 47.1749 137.564 47.2023C138.68 47.2317 139.38 46.6768 139.55 45.5472C139.62 44.9756 139.65 44.3997 139.639 43.8239C139.652 42.5629 139.639 41.302 139.639 40.0032H141.561C141.576 40.145 141.6 40.2795 141.601 40.413C141.601 41.9524 141.626 43.4929 141.595 45.0365C141.567 46.39 141.184 47.6152 139.923 48.3329C139.466 48.5935 138.912 48.6881 138.401 48.8489C138.22 48.9056 138.03 48.9329 137.844 48.9739L137.427 48.9687Z" fill="#2B2B2B"></path><path id="Vector_7" d="M78.4667 48.9687C77.8362 48.8384 77.1942 48.7469 76.5752 48.5694C75.0936 48.1406 74.9875 47.8254 75.8113 46.5119C75.8197 46.4993 75.8407 46.4961 75.7609 46.536C76.6015 46.7924 77.3371 47.1014 78.1189 47.2317C78.6663 47.3231 79.2748 47.2443 79.8138 47.0982C80.0765 47.0268 80.3918 46.6422 80.4212 46.3711C80.4475 46.1388 80.1532 45.77 79.9052 45.6355C79.5017 45.4117 79.0226 45.3203 78.5718 45.1858C78.0695 45.0365 77.5577 44.9188 77.0607 44.7581C76.1034 44.4428 75.4414 43.8491 75.3405 42.7994C75.2355 41.7265 75.7609 40.7429 76.7308 40.3037C78.412 39.5429 80.1017 39.6837 81.7578 40.4182C81.8629 40.4666 81.9774 40.723 81.9428 40.8386C81.8206 41.2195 81.6786 41.5938 81.5172 41.9598C80.7627 41.7727 80.0681 41.53 79.3546 41.448C78.8542 41.4044 78.3504 41.4782 77.8835 41.6634C77.645 41.7549 77.3886 42.1626 77.3938 42.4221C77.3991 42.6817 77.6817 43.0442 77.9287 43.1388C78.6747 43.4246 79.4629 43.6022 80.2404 43.8229C80.4086 43.8712 80.5778 43.9132 80.7427 43.971C81.8461 44.3535 82.4324 45.0439 82.4566 45.9812C82.4881 47.1949 81.9249 48.1123 80.8194 48.521C80.2678 48.7249 79.6762 48.8226 79.1024 48.9676L78.4667 48.9687Z" fill="#2B2B2B"></path><path id="Vector_8" d="M164.013 48.9687C163.432 48.8552 162.839 48.7827 162.274 48.6177C161.748 48.4632 161.244 48.211 160.661 47.9725L161.343 46.4236C161.539 46.5287 161.7 46.6106 161.868 46.6926C162.861 47.1875 163.896 47.4376 165.011 47.2275C165.51 47.1329 165.957 46.9185 165.987 46.3627C166.018 45.8068 165.546 45.6019 165.105 45.4663C164.237 45.2026 163.345 45.0134 162.487 44.7213C160.683 44.1055 160.253 41.9041 161.731 40.6967C162.239 40.3027 162.836 40.0381 163.47 39.9254C164.885 39.668 166.279 39.8077 167.6 40.5822L167.041 41.9661C166.312 41.7801 165.635 41.5331 164.94 41.4554C164.423 41.406 163.903 41.478 163.419 41.6655C163.172 41.7601 162.933 42.1846 162.918 42.4726C162.906 42.6911 163.211 43.0453 163.452 43.1356C164.201 43.4151 164.986 43.5969 165.757 43.8176C165.942 43.8712 166.127 43.9227 166.307 43.9889C167.424 44.3913 167.988 45.0828 168 46.0716C168.016 47.197 167.428 48.1186 166.361 48.5137C165.811 48.7175 165.221 48.8184 164.649 48.9655L164.013 48.9687Z" fill="#2B2B2B"></path><path id="Vector_9" d="M167.865 0.611565V33.2917H166.271C164.923 33.2917 163.574 33.2801 162.225 33.3001C162.063 33.3111 161.901 33.2807 161.754 33.2118C161.607 33.1428 161.48 33.0376 161.385 32.906C158.36 29.2044 155.33 25.5069 152.295 21.8137C150.132 19.1741 147.968 16.5348 145.803 13.8959C145.715 13.7908 145.614 13.692 145.418 13.4818V33.2591H138.003V0.617864C138.191 0.602102 138.378 0.574789 138.567 0.573738C140.248 0.573738 141.929 0.583198 143.61 0.563232C144.022 0.563232 144.285 0.704034 144.54 1.01612C149.676 7.30765 154.82 13.5943 159.971 19.876C160.091 20.0221 160.218 20.1629 160.438 20.4172C160.454 20.1124 160.471 19.9338 160.471 19.7562C160.471 13.5915 160.471 7.42674 160.471 1.26201C160.471 0.572679 160.471 0.570582 161.155 0.570582C163.151 0.570582 165.148 0.570582 167.144 0.570582C167.375 0.573735 167.594 0.596854 167.865 0.611565Z" fill="#2B2B2B"></path><path id="Vector_10" d="M75.2922 33.2643H67.759V32.6338C67.759 22.1615 67.7555 11.6885 67.7485 1.21472C67.7485 0.718737 67.8725 0.561121 68.3853 0.563223C72.8859 0.582137 77.3875 0.55691 81.8892 0.581078C84.6402 0.595789 87.3345 0.963569 89.8312 2.22033C93.5258 4.08131 95.6316 7.04039 96.012 11.1974C96.1938 13.1813 96.012 15.1127 95.2638 16.9663C94.2309 19.5439 92.3594 21.3345 89.9047 22.5514C89.7513 22.627 89.5968 22.6985 89.3699 22.8067C91.8004 26.2943 94.2036 29.742 96.6593 33.2706C96.3809 33.2864 96.2148 33.3032 96.0477 33.3032C93.7181 33.3032 91.3885 33.2906 89.0599 33.3032C88.6984 33.3032 88.4977 33.1761 88.2991 32.8829C86.3961 30.114 84.4721 27.3577 82.5701 24.5878C82.3599 24.2726 82.1319 24.1528 81.7557 24.1559C79.776 24.1727 77.7966 24.1727 75.8176 24.1559C75.3973 24.1559 75.2849 24.2852 75.2922 24.6961C75.309 27.3231 75.3006 29.9501 75.3006 32.5771L75.2922 33.2643ZM75.3416 6.74091C75.3237 6.79582 75.31 6.85203 75.3006 6.90903C75.3006 10.5322 75.2961 14.1554 75.287 17.7786C75.287 18.1201 75.4393 18.1916 75.7325 18.1874C78.1651 18.1527 80.6061 18.2399 83.0272 18.0623C85.8444 17.8521 88.0627 16.3505 88.4199 13.2401C88.7352 10.4555 87.6077 7.94934 84.5446 7.13391C83.598 6.88982 82.6268 6.7534 81.6496 6.72725C79.7088 6.6663 77.7616 6.70834 75.8208 6.71044C75.6673 6.71044 75.5139 6.72935 75.3416 6.74091Z" fill="#2B2B2B"></path><path id="Vector_11" d="M61.0506 6.60644H44.5446C43.8573 6.60644 43.8573 6.60644 43.8573 7.28631C43.8573 9.2303 43.8752 11.1743 43.8458 13.1183C43.8384 13.6374 43.9614 13.7992 44.5099 13.7961C49.0988 13.7729 53.6876 13.7824 58.2755 13.7824H58.9847V19.6133H43.8983V27.2201H61.5939V33.2549H36.3745C36.3661 33.0784 36.3493 32.8934 36.3493 32.7085C36.3493 22.2004 36.3455 11.6923 36.3378 1.18427C36.3378 0.704049 36.466 0.55379 36.9504 0.560095C44.7964 0.572705 52.6424 0.572705 60.4885 0.560095C60.9277 0.560095 61.1042 0.658863 61.0958 1.14329C61.0674 2.80566 61.0874 4.47015 61.0853 6.13358C61.0916 6.27229 61.0685 6.40889 61.0506 6.60644Z" fill="#2B2B2B"></path><path id="Vector_12" d="M97.8562 33.258C98.1304 32.6276 98.3816 32.0591 98.6317 31.4895C103.14 21.3675 107.647 11.2447 112.15 1.12121C112.336 0.700891 112.559 0.55904 113.01 0.564294C115.077 0.587412 117.143 0.592666 119.21 0.564294C119.718 0.556938 119.945 0.745033 120.142 1.19478C124.107 10.1042 128.081 19.0105 132.063 27.9136C132.775 29.5018 133.488 31.0941 134.201 32.6906C134.277 32.8608 134.336 33.0395 134.433 33.2917H133.855C131.613 33.2917 129.372 33.2822 127.13 33.3001C126.726 33.3001 126.517 33.2066 126.355 32.803C125.538 30.7592 124.674 28.7343 123.846 26.6947C123.71 26.3605 123.531 26.2555 123.186 26.2565C118.44 26.267 113.695 26.267 108.95 26.2565C108.577 26.2565 108.395 26.3763 108.256 26.722C107.43 28.7637 106.575 30.7929 105.747 32.8325C105.611 33.1666 105.442 33.3064 105.058 33.3032C102.835 33.2822 100.611 33.2938 98.3868 33.2917C98.2324 33.2906 98.0821 33.2728 97.8562 33.258ZM116.157 8.14375L116.009 8.12905C114.306 12.2451 112.603 16.3611 110.884 20.516H121.279C119.548 16.3369 117.853 12.2408 116.157 8.14375Z" fill="#2B2B2B"></path><path id="Vector_13" d="M18.4908 48.7448V48.0839C18.4908 45.5987 18.5045 43.1136 18.4803 40.6284C18.4751 40.1198 18.5854 39.959 19.135 39.9317C19.9021 39.8939 20.3812 40.1534 20.8415 40.7576C21.8923 42.1342 23.0198 43.4498 24.1179 44.7885C24.223 44.9167 24.3449 45.0323 24.5466 45.2477C24.5603 44.942 24.5761 44.7591 24.5761 44.5773C24.5761 43.1945 24.5887 41.8116 24.5708 40.4298C24.5656 40.0568 24.6948 39.9338 25.0552 39.9517C25.5239 39.9748 25.9936 39.9569 26.5064 39.9569V48.7417C26.0083 48.7417 25.5386 48.769 25.0741 48.7259C24.9186 48.7123 24.7515 48.5431 24.637 48.4107C23.3971 46.9154 22.1676 45.4127 20.9329 43.9143C20.8278 43.7871 20.7112 43.6705 20.5063 43.4467C20.4895 43.7735 20.4737 43.9574 20.4727 44.1412C20.4727 45.4358 20.4727 46.7315 20.4727 48.0292C20.4727 48.7511 20.4727 48.7511 19.7728 48.7522L18.4908 48.7448Z" fill="#2B2B2B"></path><path id="Vector_14" d="M149.48 45.9528L151.427 48.7406C150.672 48.7406 150.052 48.7585 149.431 48.727C149.297 48.7207 149.142 48.5599 149.049 48.4317C148.629 47.8506 148.217 47.2621 147.825 46.6621C147.654 46.3994 147.463 46.2775 147.14 46.2954C146.672 46.3227 146.202 46.3028 145.648 46.3028C145.648 46.9847 145.633 47.611 145.654 48.2362C145.666 48.6103 145.559 48.7816 145.151 48.7532C144.681 48.7207 144.205 48.7459 143.693 48.7459V39.958C144.414 39.958 145.128 39.938 145.839 39.958C146.832 39.9937 147.836 39.9674 148.812 40.1408C150.125 40.3762 151.034 41.2021 151.26 42.5577C151.501 43.9983 150.962 45.1301 149.641 45.8373C149.585 45.8728 149.532 45.9114 149.48 45.9528ZM145.697 44.6919C146.261 44.6919 146.783 44.6919 147.306 44.6919C147.498 44.6987 147.691 44.6924 147.882 44.673C148.641 44.5679 149.179 43.9983 149.225 43.2817C149.278 42.441 148.885 41.8106 148.046 41.6866C147.286 41.5815 146.497 41.6634 145.697 41.6634V44.6919Z" fill="#2B2B2B"></path><path id="Vector_15" d="M88.7236 43.8512C88.5135 43.5234 88.3033 43.2418 88.1446 42.9381C87.6087 41.9293 87.9723 40.6935 88.9853 40.1965C89.4387 39.9633 89.9377 39.8321 90.4472 39.8119C90.9567 39.7918 91.4644 39.8832 91.9349 40.0799C93.2453 40.6168 93.5563 42.2319 92.5486 43.2323C92.2333 43.5475 91.8508 43.8018 91.4578 44.1181L93.0519 45.5966C93.2305 45.1132 93.3787 44.7097 93.5489 44.2474L95.08 44.7276C94.8635 45.2782 94.7122 45.7984 94.461 46.2628C94.2687 46.618 94.3171 46.8292 94.6123 47.0593C94.8299 47.2285 95.0201 47.4334 95.2512 47.6488C94.9076 48.0618 94.5861 48.4475 94.2309 48.872C93.9954 48.6816 93.7702 48.4789 93.5563 48.2646C93.3041 47.9851 93.0981 47.9557 92.7535 48.1658C91.4925 48.9329 90.1359 49.0821 88.7194 48.6545C87.8452 48.3897 87.1516 47.8811 86.9331 46.9732C86.6998 45.9907 87.0455 45.1448 87.8399 44.5048C88.1121 44.2852 88.4 44.0887 88.7236 43.8512ZM92.0232 46.8649C91.4221 46.3049 90.8904 45.8036 90.3513 45.3108C89.7965 44.8033 89.7293 44.8096 89.186 45.3486C88.4599 46.0716 88.6742 46.9931 89.6504 47.3052C90.4732 47.5658 91.2224 47.3725 92.0232 46.8628V46.8649ZM90.6424 41.1307C90.0634 41.1254 89.6557 41.4764 89.6557 41.9776C89.6557 42.3738 90.1506 43.0778 90.4165 43.0589C90.7716 43.0337 91.4999 42.2613 91.5135 41.8946C91.5314 41.4543 91.1636 41.1317 90.6424 41.1286V41.1307Z" fill="currentColor"></path><path id="Vector_16" d="M159.695 48.7238H152.947C152.934 48.5431 152.913 48.375 152.912 48.2068C152.912 45.6513 152.922 43.0947 152.902 40.5359C152.902 40.0778 153.02 39.937 153.489 39.9433C155.327 39.9696 157.167 39.9654 159.004 39.9433C159.445 39.938 159.578 40.083 159.566 40.5139C159.527 41.7486 159.709 41.5647 158.505 41.5741C157.524 41.5815 156.544 41.5741 155.562 41.5741C155.374 41.5741 155.186 41.5899 154.968 41.5994V43.5171H157.923C159.07 43.5171 159.059 43.5171 158.997 44.6604C158.981 44.9756 158.858 45.0807 158.55 45.0807C157.535 45.0681 156.519 45.0922 155.502 45.0691C155.087 45.0597 154.92 45.1626 154.922 45.6187C154.929 47.1949 154.912 47.1949 156.477 47.1854C157.387 47.1854 158.298 47.176 159.209 47.1539C159.555 47.1455 159.734 47.2411 159.701 47.6257C159.674 47.9714 159.695 48.3193 159.695 48.7238Z" fill="#2B2B2B"></path><path id="Vector_17" d="M73.4438 45.0786C72.2606 45.0786 71.1237 45.0965 69.9877 45.0691C69.5443 45.0586 69.3362 45.1606 69.3888 45.6471C69.4413 46.1336 69.2553 46.7935 69.5075 47.0541C69.7597 47.3147 70.4228 47.1802 70.9061 47.1823C71.8344 47.1886 72.7622 47.1795 73.6897 47.155C74.0554 47.1455 74.1952 47.2832 74.171 47.6468C74.1489 47.9904 74.171 48.3361 74.171 48.7449H73.0151C71.316 48.7449 69.6168 48.7364 67.9187 48.7512C67.5635 48.7512 67.4227 48.6618 67.4248 48.2846C67.4374 45.6576 67.4322 43.0306 67.4301 40.4035C67.4301 40.1608 67.4301 39.9527 67.7768 39.9548C69.8081 39.9664 71.8403 39.9664 73.8715 39.9727C73.917 39.9837 73.9606 40.0014 74.0008 40.0253V41.5615H69.4403V43.494H73.4438V45.0786Z" fill="#2B2B2B"></path><path id="Vector_18" d="M17.5304 48.7343C16.8652 48.7343 16.2757 48.7522 15.6883 48.7196C15.5643 48.7133 15.4046 48.5441 15.3384 48.4107C15.1414 48.0199 14.966 47.6186 14.813 47.2086C14.7132 46.9406 14.565 46.8355 14.2697 46.8397C13.1674 46.8565 12.063 46.8303 10.9607 46.8628C10.7737 46.8681 10.5236 47.0467 10.4259 47.2159C10.2286 47.586 10.0644 47.9728 9.93516 48.3718C9.83849 48.6419 9.69033 48.7543 9.39505 48.7417C8.877 48.7186 8.3579 48.7354 7.73687 48.7354L8.6826 46.5949C9.59785 44.5332 10.5205 42.4757 11.4147 40.4067C11.5618 40.0694 11.7478 39.9864 12.1072 39.9286C13.2536 39.7531 13.8347 40.1734 14.2729 41.2747C15.1934 43.6148 16.2915 45.8845 17.315 48.1848C17.3791 48.3382 17.4337 48.499 17.5304 48.7343ZM11.1898 45.3003H14.0333C13.5562 44.1749 13.1118 43.1272 12.6 41.923C12.0967 43.1157 11.6574 44.1665 11.1856 45.3003H11.1898Z" fill="#2B2B2B"></path><path id="Vector_19" d="M47.0129 48.7354C47.5141 47.6058 47.9712 46.5728 48.4304 45.5409C49.2038 43.8029 49.9856 42.068 50.7485 40.3258C50.8725 40.0421 51.0459 39.9801 51.338 39.9349C52.4645 39.7583 53.0981 40.1135 53.5447 41.2578C54.5062 43.7104 55.66 46.0863 56.7329 48.4948C56.7564 48.5722 56.7743 48.6512 56.7864 48.7312C56.1434 48.7312 55.5255 48.7448 54.9087 48.7165C54.8036 48.7165 54.6754 48.5368 54.6165 48.4128C54.4284 48.0187 54.2572 47.6163 54.1016 47.2086C53.9966 46.9438 53.8494 46.8355 53.5563 46.8397C52.455 46.8565 51.3531 46.8565 50.2504 46.8397C49.9478 46.8397 49.766 46.9185 49.662 47.2212C49.5225 47.6343 49.354 48.0371 49.1576 48.4264C49.1148 48.5021 49.0561 48.5676 48.9855 48.6184C48.9149 48.6692 48.8342 48.7041 48.7488 48.7207C48.214 48.7564 47.6707 48.7354 47.0129 48.7354ZM53.3104 45.3224C52.8354 44.1854 52.3983 43.1356 51.9601 42.0869H51.8214C51.3832 43.1482 50.944 44.2085 50.4848 45.3192L53.3104 45.3224Z" fill="#2B2B2B"></path><path id="Vector_20" d="M107.989 41.3713L106.79 42.4852C105.097 41.199 103.458 41.1801 102.385 42.4001C101.439 43.4813 101.453 45.3045 102.427 46.3448C103.534 47.5248 105.204 47.4786 106.785 46.1893L107.984 47.3042C107.116 48.6387 104.823 49.2461 102.866 48.6818C101.941 48.4207 101.126 47.8662 100.543 47.1017C99.9599 46.3373 99.641 45.4042 99.6342 44.4428C99.5995 42.3906 100.79 40.7125 102.743 40.0662C104.676 39.4263 107.011 39.9937 107.989 41.3713Z" fill="#2B2B2B"></path><path id="Vector_21" d="M129.934 48.7144H127.938V41.6151H125.083C125.083 41.1086 125.062 40.661 125.1 40.2186C125.109 40.1219 125.331 39.9695 125.456 39.9685C127.747 39.9538 130.04 39.9622 132.332 39.9538C132.627 39.9538 132.752 40.0673 132.743 40.351C132.743 40.7482 132.743 41.1443 132.743 41.5888H129.934V48.7144Z" fill="#2B2B2B"></path><path id="Vector_22" d="M119.308 48.707C119.296 48.5231 119.279 48.3865 119.279 48.2488C119.279 45.6597 119.287 43.0705 119.268 40.4813C119.268 40.061 119.396 39.9475 119.805 39.9485C121.304 39.9485 121.304 39.937 121.304 41.4596V47.0814C121.52 47.094 121.704 47.115 121.889 47.1161C123.008 47.1161 124.128 47.1266 125.252 47.1108C125.602 47.1108 125.777 47.1949 125.742 47.5805C125.714 47.942 125.736 48.3077 125.736 48.707H119.308Z" fill="#2B2B2B"></path><path id="Vector_23" d="M7.59293 48.7448H6.30885C4.7505 48.7448 3.19215 48.7375 1.6338 48.7448C1.31121 48.7448 1.15464 48.6713 1.15569 48.313C1.1641 45.6691 1.1641 43.0256 1.15569 40.3825C1.15569 40.0746 1.25446 39.9622 1.57601 39.9454C3.17744 39.8813 3.17744 39.8729 3.17744 41.4606C3.17744 43.123 3.17744 44.7861 3.17744 46.4499V47.1129H3.92877C4.99639 47.1129 6.06506 47.1213 7.13268 47.1066C7.46789 47.1066 7.61605 47.2117 7.59713 47.5585C7.57822 47.9052 7.59293 48.2919 7.59293 48.7448Z" fill="#2B2B2B"></path></g></svg>